{"title":"The Hunger Games [2012].720p.BRRip.[Dual Audio].6Ch.[Hindi+Engli","uid":7561374,"size":1369458541,"categoryP":"video","categoryS":"hd___movies","magnet":"?xt=urn:btih:2f498fd59fb80cec5be150d248181c5850db9433&amp;dn=The+Hunger+Games+%5B2012%5D.720p.BRRip.%5BDual+Audio%5D.6Ch.%5BHindi%2BEngli&amp;tr=udp%3A%2F%2Ftracker.openbittorrent.com%3A80&amp;tr=udp%3A%2F%2Fopen.demonii.com%3A1337&amp;tr=udp%3A%2F%2Ftracker.coppersurfer.tk%3A6969&amp;tr=udp%3A%2F%2Fexodus.desync.com%3A6969","seeders":4,"leechers":0,"uploader":"TeamExD","files":4,"time":1345748090,"description":"Format                                   : Matroska\nFormat version                           : Version 2\nFile size                                : 1.26 GiB\nDuration                                 : 2h 22mn\nOverall bit rate                         : 1 265 Kbps\nMovie name                               : The Hunger Games [2012].720p.BRRip.x264.[Dual Audio].6Ch.[Hindi+English].by K@rtik [ExD Exclusive]\nFormat/Info                              : Advanced Video Codec\nFormat profile                           : &lt;a class=&quot;__cf_email__&quot; href=&quot;/cdn-cgi/l/email-protection&quot; data-cfemail=&quot;c48cada3ac8488f7eaf5&quot;&gt;[email&amp;#160;protected]&lt;/a&gt;&lt;script data-cfhash='f9e31' type=&quot;text/javascript&quot;&gt;\n/* &lt;![CDATA[ */!function(){try{var t=&quot;currentScript&quot;in document?document.currentScript:function(){for(var t=document.getElementsByTagName(&quot;script&quot;),e=t.length;e--;)if(t[e].getAttribute(&quot;data-cfhash&quot;))return t[e]}();if(t&amp;&amp;t.previousSibling){var e,r,n,i,c=t.previousSibling,a=c.getAttribute(&quot;data-cfemail&quot;);if(a){for(e=&quot;&quot;,r=parseInt(a.substr(0,2),16),n=2;a.length-n;n+=2)i=parseInt(a.substr(n,2),16)^r,e+=String.fromCharCode(i);e=document.createTextNode(e),c.parentNode.replaceChild(e,c)}t.parentNode.removeChild(t);}}catch(u){}}()/* ]]&gt; */&lt;/script&gt;\nFormat settings, CABAC                   : Yes\nFormat settings, ReFrames                : 4 frames\nMuxing mode                              : Header stripping\nCodec ID                                 : V_MPEG4/ISO/AVC\nDuration                                 : 2h 22mn\nBit rate                                 : 592 Kbps\nWidth                                    : 1 280 pixels\nHeight                                   : 544 pixels\nDisplay aspect ratio                     : 2.35:1\nFrame rate                               : 23.976 fps\nCodec ID                                 : A_AC3\nDuration                                 : 2h 22mn\nBit rate mode                            : Constant\nBit rate                                 : 448 Kbps\nChannel(s)                               : 6 channels\nChannel positions                        : Front: L C R, Side: L R, LFE\nSampling rate                            : 48.0 KHz\nStream size                              : 457 MiB (35%)\nTitle                                    : K@rtik\nLanguage                                 : Hindi\nCodec ID                                 : A_AC3\nDuration                                 : 2h 22mn\nBit rate mode                            : Constant\nBit rate                                 : 224 Kbps\nChannel(s)                               : 6 channels\nChannel positions                        : Front: L C R, Side: L R, LFE\nSampling rate                            : 48.0 KHz\nStream size                              : 228 MiB (18%)\nTitle                                    : K@rtik\nLanguage                                 : English &lt;a href=&quot;\nhttp://img706.imageshack.us/img706/6396/coverwyvj.jpg&quot; rel=&quot;nofollow&quot; target=&quot;_NEW&quot;&gt;\nhttp://img706.imageshack.us/img706/6396/coverwyvj.jpg&lt;/a&gt; &lt;a href=&quot;\nhttp://img824.imageshack.us/img824/4664/83349149.png&quot; rel=&quot;nofollow&quot; target=&quot;_NEW&quot;&gt;\nhttp://img824.imageshack.us/img824/4664/83349149.png&lt;/a&gt; &lt;a href=&quot;\nhttp://img502.imageshack.us/img502/193/32269248.png&quot; rel=&quot;nofollow&quot; target=&quot;_NEW&quot;&gt;\nhttp://img502.imageshack.us/img502/193/32269248.png&lt;/a&gt; &lt;a href=&quot;\nhttp://img443.imageshack.us/img443/8535/73145681.png&quot; rel=&quot;nofollow&quot; target=&quot;_NEW&quot;&gt;\nhttp://img443.imageshack.us/img443/8535/73145681.png&lt;/a&gt; &lt;a href=&quot;\nhttp://img201.imageshack.us/img201/2341/65181721.png&quot; rel=&quot;nofollow&quot; target=&quot;_NEW&quot;&gt;\nhttp://img201.imageshack.us/img201/2341/65181721.png&lt;/a&gt; &lt;a href=&quot;\nhttp://img513.imageshack.us/img513/2999/54318695.png&quot; rel=&quot;nofollow&quot; target=&quot;_NEW&quot;&gt;\nhttp://img513.imageshack.us/img513/2999/54318695.png&lt;/a&gt; &lt;a href=&quot;\nhttp://img836.imageshack.us/img836/6226/70193696.png&quot; rel=&quot;nofollow&quot; target=&quot;_NEW&quot;&gt;\nhttp://img836.imageshack.us/img836/6226/70193696.png&lt;/a&gt; &lt;a href=&quot;\nhttp://img826.imageshack.us/img826/4530/92803704.png&quot; rel=&quot;nofollow&quot; target=&quot;_NEW&quot;&gt;\nhttp://img826.imageshack.us/img826/4530/92803704.png&lt;/a&gt; &lt;a href=&quot;\nhttp://img18.imageshack.us/img18/5083/24828747.png&quot; rel=&quot;nofollow&quot; target=&quot;_NEW&quot;&gt;\nhttp://img18.imageshack.us/img18/5083/24828747.png&lt;/a&gt; &lt;a href=&quot;\nhttp://img191.imageshack.us/img191/7345/48770585.png&quot; rel=&quot;nofollow&quot; target=&quot;_NEW&quot;&gt;\nhttp://img191.imageshack.us/img191/7345/48770585.png&lt;/a&gt; &lt;a href=&quot;\nhttp://img515.imageshack.us/img515/5761/72746704.png&quot; rel=&quot;nofollow&quot; target=&quot;_NEW&quot;&gt;\nhttp://img515.imageshack.us/img515/5761/72746704.png&lt;/a&gt; &lt;a href=&quot;\nhttp://img26.imageshack.us/img26/2586/73405655.png&quot; rel=&quot;nofollow&quot; target=&quot;_NEW&quot;&gt;\nhttp://img26.imageshack.us/img26/2586/73405655.png&lt;/a&gt;\n\n\n","torrent":{"xt":"urn:btih:2f498fd59fb80cec5be150d248181c5850db9433","amp;dn":"The+Hunger+Games+%5B2012%5D.720p.BRRip.%5BDual+Audio%5D.6Ch.%5BHindi%2BEngli","amp;tr":["udp%3A%2F%2Ftracker.openbittorrent.com%3A80","udp%3A%2F%2Fopen.demonii.com%3A1337","udp%3A%2F%2Ftracker.coppersurfer.tk%3A6969","udp%3A%2F%2Fexodus.desync.com%3A6969"],"infoHash":"2f498fd59fb80cec5be150d248181c5850db9433","infoHashBuffer":{"type":"Buffer","data":[47,73,143,213,159,184,12,236,91,225,80,210,72,24,28,88,80,219,148,51]},"announce":[],"urlList":[]}}